<?xml version="1.0" encoding="utf-8"?>
<!-- Generator: Adobe Illustrator 22.0.0, SVG Export Plug-In . SVG Version: 6.00 Build 0)  -->
<svg version="1.1" id="Layer_1" xmlns="http://www.w3.org/2000/svg" xmlns:xlink="http://www.w3.org/1999/xlink" x="0px" y="0px"
	 viewBox="0 0 512 512" style="enable-background:new 0 0 512 512;" xml:space="preserve">
<style type="text/css">
	.st0{fill:#D0EFE7;}
	.st1{fill:#333333;}
</style>
<g>
	<g>
		<g>
			<path class="st0" d="M454.2,169.3H313.8c-31.9,0-57.8-25.9-57.8-57.8s25.9-57.8,57.8-57.8c3.2,0,6.3,0.3,9.4,0.8
				c11.5-30,40.5-50.3,73.2-50.3c33,0,62.6,21.1,73.8,51.8c24.5,7,41.9,29.6,41.9,55.6C512,143.4,486.1,169.3,454.2,169.3z"/>
			<path class="st1" d="M500.3,273.9c-28.9-14.4-61.2-22.1-93.5-22.1H302.7l-93.6-66.1h-80.4l66.1,66.1H127l-74.3-66.1H3.8
				l32.7,73.6l-11.8,2v27.8l5.3,3.8c38,27.2,82.9,41.5,129.6,41.5h18.6l-60.4,60.4l8.4,5.6c2.6,1.7,5.1,3.7,7.4,6l2.4,2.4h48.2
				l105.3-74.3h115.1c28.5,0,56.2-5.7,82.4-16.9l12.1-5.2c7.8-3.4,12.8-11,12.8-19.5C512,284.8,507.5,277.6,500.3,273.9z
				 M168.6,202.3h35.3l70.2,49.5h-55.9L168.6,202.3z M29.2,202.3h17.2l55.7,49.5H90.8c-5.9,0-11.8,0.5-17.6,1.5l-19.8,3.3
				L29.2,202.3z M492.7,297.2l-12.1,5.2c-24.1,10.3-49.6,15.6-75.9,15.6H313l13.8-9.8l-9.5-13.5l-138.2,97.6h-35.3l85-85l-11.7-11.7
				l-22.4,22.4h-35.1c-42.6,0-83.5-12.9-118.4-37.3v-5.3l34.6-5.8c4.9-0.8,10-1.2,14.9-1.2h316c29.7,0,59.5,7,86.1,20.3
				c1.6,0.8,2.6,2.4,2.6,4.2C495.5,294.8,494.4,296.4,492.7,297.2z"/>
			<path class="st0" d="M148.6,507.9H49.5C22.2,507.9,0,485.6,0,458.3c0-24.3,17.9-44.8,41.5-48.7c11.6-20.7,33.7-33.9,57.6-33.9
				c31.4,0,58.3,22.2,64.6,52.5c15.7,6.1,26.2,21.2,26.2,38.4C189.9,489.3,171.4,507.9,148.6,507.9z"/>
			<rect x="280.8" y="425.3" class="st1" width="165.2" height="16.5"/>
			<rect x="247.7" y="425.3" class="st1" width="16.5" height="16.5"/>
			<rect x="74.3" y="61.9" class="st1" width="132.1" height="16.5"/>
			<rect x="41.3" y="61.9" class="st1" width="16.5" height="16.5"/>
			<rect x="41.3" y="103.2" class="st1" width="123.9" height="16.5"/>
			<rect x="8.3" y="103.2" class="st1" width="16.5" height="16.5"/>
		</g>
	</g>
</g>
</svg>
